<svg xmlns="http://www.w3.org/2000/svg" xmlns:xlink="http://www.w3.org/1999/xlink" viewBox="0 0 412.62 210.25"><defs><style>.cls-1{fill:#ff4f00;}.cls-2{fill:url(#linear-gradient);}.cls-3{fill:url(#linear-gradient-2);}.cls-4{fill:url(#linear-gradient-3);}.cls-5{fill:url(#linear-gradient-4);}.cls-6{fill:url(#linear-gradient-5);}.cls-7{fill:url(#linear-gradient-6);}.cls-8{fill:url(#linear-gradient-7);}.cls-9{fill:url(#linear-gradient-8);}.cls-10{fill:url(#radial-gradient);}.cls-11{fill:url(#radial-gradient-2);}.cls-12{fill:url(#radial-gradient-3);}.cls-13{fill:url(#radial-gradient-4);}.cls-14{fill:url(#radial-gradient-5);}.cls-15{fill:url(#radial-gradient-6);}.cls-16{mask:url(#mask);}.cls-17{opacity:0.25;fill:url(#linear-gradient-9);}</style><linearGradient id="linear-gradient" x1="31.37" y1="-55.58" x2="34.19" y2="132.15" gradientUnits="userSpaceOnUse"><stop offset="0" stop-color="#c8a337"/><stop offset="1" stop-color="#ba9230"/></linearGradient><linearGradient id="linear-gradient-2" x1="107.64" y1="-56.72" x2="110.46" y2="131.01" xlink:href="#linear-gradient"/><linearGradient id="linear-gradient-3" x1="177.32" y1="-57.77" x2="180.14" y2="129.96" xlink:href="#linear-gradient"/><linearGradient id="linear-gradient-4" x1="312.57" y1="-59.8" x2="315.39" y2="127.93" xlink:href="#linear-gradient"/><linearGradient id="linear-gradient-5" x1="383.66" y1="-60.87" x2="386.48" y2="126.86" xlink:href="#linear-gradient"/><linearGradient id="linear-gradient-6" x1="245.67" y1="-58.79" x2="248.49" y2="128.93" xlink:href="#linear-gradient"/><linearGradient id="linear-gradient-7" x1="245.2" y1="-58.79" x2="248.02" y2="128.94" xlink:href="#linear-gradient"/><linearGradient id="linear-gradient-8" x1="244.8" y1="-58.78" x2="247.62" y2="128.95" xlink:href="#linear-gradient"/><radialGradient id="radial-gradient" cx="39.54" cy="147.8" r="51.97" gradientUnits="userSpaceOnUse"><stop offset="0" stop-color="#ff4f00"/><stop offset="1" stop-color="#e63f00"/></radialGradient><radialGradient id="radial-gradient-2" cx="254.81" cy="147.36" r="55.96" xlink:href="#radial-gradient"/><radialGradient id="radial-gradient-3" cx="363.45" cy="147.37" r="55.96" xlink:href="#radial-gradient"/><radialGradient id="radial-gradient-4" cx="356.97" cy="195.68" r="4.29" xlink:href="#radial-gradient"/><radialGradient id="radial-gradient-5" cx="123.74" cy="147.37" r="52.05" xlink:href="#radial-gradient"/><radialGradient id="radial-gradient-6" cx="178.99" cy="153.87" r="42.29" xlink:href="#radial-gradient"/><mask id="mask" x="0" y="85.31" width="412.67" height="124.89" maskUnits="userSpaceOnUse"><path class="cls-1" d="M44.3,147.67q0,8.81-.61,15a33.51,33.51,0,0,1-2.27,9.93,11.26,11.26,0,0,1-5,5.61A18.16,18.16,0,0,1,27.71,180a34.75,34.75,0,0,1-13.1-2.26l-1.32-.55c-.42-.17-.82-.33-1.18-.49L10.59,176l-2.66-1.11L1.4,172.18.81,202.51A42.1,42.1,0,0,0,13,208.27a52.67,52.67,0,0,0,14.67,1.93q16.95,0,27.08-4.43T70,193.05A51.9,51.9,0,0,0,76.7,173.3a177.64,177.64,0,0,0,1.66-25.46V85.31H44.3Z"/><polygon class="cls-1" points="302.98 110.63 302.98 85.31 208.31 85.31 208.31 115 261.93 115 205.69 183.99 205.69 209.32 304.03 209.32 304.03 179.63 250.23 179.63 302.98 110.63"/><path class="cls-1" d="M163.45,90.31l-1.59-5H123.77l-39.64,124H119.6a19.92,19.92,0,0,1-.79-5.59V181.28c0-4.33-4.26-8-6.13-9.45l-4,4.91L106,174.53,131,143.93l2.69,2.21-4,4.93c2.57,2.33,9.3,9.19,9.3,16.84v32.52c0,7.82,7.83,6.18,7.83.41V109.06C146.8,99.71,150.62,89.52,163.45,90.31ZM143.82,143h-2.28v-6.69h2.28Zm0-10.61h-2.28v-6.68h2.28Zm0-10.59h-2.28v-6.69h2.28Z"/><path class="cls-1" d="M157.91,109.06v91.37a31.74,31.74,0,0,1-1.17,8.89h44.59L166,98.32C158.27,99.27,157.91,106.38,157.91,109.06Z"/><path class="cls-1" d="M358.87,179.63l52.75-69V85.31H317V115h53.61l-56.24,69v25.32h98.34V179.63Zm15.13-86h2.65v5.52h6.2V93.64h2.64v13.67h-2.64v-5.83h-6.2v5.83H374Zm-24.32,13.67h-2.29l-2.4-5.73-2.39,5.73h-2.3l-5.45-13.67h2.85l3.87,10.62,1.72-4.39L341,93.67h2.47L345,98.18l1.57-4.51H349l-2.33,6.2,1.72,4.39,3.86-10.62h2.9Zm9.54,0h-2.66V93.64h2.66ZM367.92,96v11.34h-2.63V96H360.9V93.64h11.37V96ZM348.3,202.47h-2.19l-7-8.79v8.79h-2.66V188.79h2.14l7.05,9v-9h2.64Zm14.88-4.21a7.23,7.23,0,0,1-1.39,2.22,6.55,6.55,0,0,1-2.11,1.52,6.42,6.42,0,0,1-2.67.56,6.2,6.2,0,0,1-2.72-.58,6.36,6.36,0,0,1-2.1-1.57,7.11,7.11,0,0,1-1.84-4.78,6.81,6.81,0,0,1,.5-2.61,7.69,7.69,0,0,1,1.41-2.22,6.54,6.54,0,0,1,2.12-1.54,6.38,6.38,0,0,1,2.68-.57,6.13,6.13,0,0,1,2.72.6,6.78,6.78,0,0,1,2.08,1.59,7.75,7.75,0,0,1,1.34,2.24,7.14,7.14,0,0,1,.47,2.54A6.94,6.94,0,0,1,363.18,198.26Zm12.05,4.21h-9.5V188.79h9.32v2.33h-6.66v3.3h5.75v2.15h-5.75v3.56h6.84Zm11.7,0h-9.62V188.79H380v11.34h7Zm11-2.09a3.6,3.6,0,0,1-1.11,1.25,4.49,4.49,0,0,1-1.62.71,8.1,8.1,0,0,1-1.93.22,10.26,10.26,0,0,1-2.05-.21,11.6,11.6,0,0,1-1.95-.6,10.45,10.45,0,0,1-1.74-1l1.17-2.29a5.07,5.07,0,0,0,.61.45,9.72,9.72,0,0,0,1.08.56,10.29,10.29,0,0,0,1.39.47,6.11,6.11,0,0,0,1.53.19,3,3,0,0,0,1.63-.35,1.16,1.16,0,0,0,.54-1,1.2,1.2,0,0,0-.43-1,3.9,3.9,0,0,0-1.23-.62c-.52-.17-1.15-.35-1.87-.55a10.31,10.31,0,0,1-2.16-.82,3.39,3.39,0,0,1-1.29-1.15,3.1,3.1,0,0,1-.43-1.71,4,4,0,0,1,.67-2.35,4.25,4.25,0,0,1,1.81-1.44,6.43,6.43,0,0,1,2.52-.49,7.57,7.57,0,0,1,1.82.21,9.38,9.38,0,0,1,1.62.56,10,10,0,0,1,1.34.76l-1.17,2.15a3.86,3.86,0,0,0-.5-.35,5.65,5.65,0,0,0-.86-.46,6.88,6.88,0,0,0-1.11-.38A5,5,0,0,0,393,191a2.8,2.8,0,0,0-1.63.39,1.33,1.33,0,0,0-.55,1.14,1.17,1.17,0,0,0,.35.89,2.79,2.79,0,0,0,1,.56c.46.15,1,.32,1.73.49a12.51,12.51,0,0,1,2.34.8,3.79,3.79,0,0,1,1.53,1.22,3.59,3.59,0,0,1,.52,2A3.93,3.93,0,0,1,398,200.38Z"/><path class="cls-1" d="M359.94,192.46a4.05,4.05,0,0,0-1.26-1,3.76,3.76,0,0,0-1.67-.37,3.55,3.55,0,0,0-1.69.4,3.73,3.73,0,0,0-1.25,1,4.44,4.44,0,0,0-.77,1.46,5.3,5.3,0,0,0-.26,1.67,5.23,5.23,0,0,0,.27,1.71,4.76,4.76,0,0,0,.78,1.48,3.87,3.87,0,0,0,1.25,1,3.7,3.7,0,0,0,1.68.37,3.61,3.61,0,0,0,1.72-.39,3.73,3.73,0,0,0,1.24-1.06,4.42,4.42,0,0,0,.76-1.48,5.55,5.55,0,0,0,.25-1.65,5.19,5.19,0,0,0-.27-1.71A4.66,4.66,0,0,0,359.94,192.46Z"/></mask><linearGradient id="linear-gradient-9" x1="-6.4" y1="58.96" x2="0.63" y2="163.49" gradientUnits="userSpaceOnUse"><stop offset="0" stop-color="#fff"/><stop offset="0.43" stop-color="#fff" stop-opacity="0.99"/><stop offset="0.58" stop-color="#fff" stop-opacity="0.97"/><stop offset="0.69" stop-color="#fff" stop-opacity="0.92"/><stop offset="0.78" stop-color="#fff" stop-opacity="0.85"/><stop offset="0.86" stop-color="#fff" stop-opacity="0.77"/><stop offset="0.93" stop-color="#fff" stop-opacity="0.66"/><stop offset="0.98" stop-color="#fff" stop-opacity="0.54"/><stop offset="1" stop-color="#fff" stop-opacity="0.5"/></linearGradient></defs><title>Modern Jazz Logo</title><g id="Layer_2" data-name="Layer 2"><g id="Layer_1-2" data-name="Layer 1"><polygon class="cls-2" points="32.75 48.61 19.21 0.73 1.57 0.73 1.57 71.77 13.74 71.77 13.74 22.27 26.84 63.86 38.66 63.86 51.75 21.32 51.75 71.77 63.92 71.77 63.92 0.73 46.28 0.73 32.75 48.61"/><path class="cls-3" d="M131.76,12.43a22.65,22.65,0,0,0-9.12-9.18A27.64,27.64,0,0,0,109,0a27.61,27.61,0,0,0-13.6,3.25,22.46,22.46,0,0,0-9.12,9.18,28.4,28.4,0,0,0-3.23,13.76V46.31a28.3,28.3,0,0,0,3.23,13.75,22.37,22.37,0,0,0,9.12,9.19A27.61,27.61,0,0,0,109,72.51a27.64,27.64,0,0,0,13.6-3.26,22.55,22.55,0,0,0,9.12-9.19A28.41,28.41,0,0,0,135,46.31V26.19A28.51,28.51,0,0,0,131.76,12.43ZM121.11,46.65a13.88,13.88,0,0,1-1.49,6.55,10.51,10.51,0,0,1-4.23,4.38,13.94,13.94,0,0,1-12.7,0,10.45,10.45,0,0,1-4.23-4.38A13.88,13.88,0,0,1,97,46.65V25.84a14,14,0,0,1,1.49-6.55,10.4,10.4,0,0,1,4.23-4.36,13.78,13.78,0,0,1,12.7,0,10.46,10.46,0,0,1,4.23,4.36,14,14,0,0,1,1.49,6.55Z"/><path class="cls-4" d="M201.39,12.4a21,21,0,0,0-9.54-8.68,35.12,35.12,0,0,0-15.18-3H153.18V71.78h23.45a1.42,1.42,0,0,0,.29,0c.73,0,1.45,0,2.14-.05s1.33-.07,2-.13a30.78,30.78,0,0,0,11-3,21.71,21.71,0,0,0,8.61-7.5c.25-.37.47-.76.69-1.15,0-.08.11-.16.15-.24a27.36,27.36,0,0,0,3.15-13.4V26.19A27.25,27.25,0,0,0,201.39,12.4ZM190.83,47.25c0,3.78-1.17,6.71-3.55,8.78s-5.7,3.11-10,3.11H167v-.26h-.47V13.63H177c4.39,0,7.79,1,10.2,3.18s3.62,5.11,3.62,9v.05c0,.31,0,.61,0,.93Z"/><path class="cls-5" d="M324.44,42.48A17.95,17.95,0,0,0,336,33.11a24.41,24.41,0,0,0,2.44-11.18A24.36,24.36,0,0,0,336,10.77a18,18,0,0,0-6.89-7.46A19.91,19.91,0,0,0,318.8.68H287.67v71.1h13.39V43.19h8.13l16,28.59h16.23Zm-3.1-13.21a6.57,6.57,0,0,1-3.61,1H301.06V13.58h16.67a6.34,6.34,0,0,1,6.07,4,10.46,10.46,0,0,1,.86,4.39,11.21,11.21,0,0,1-.9,4.41A6.78,6.78,0,0,1,321.34,29.27Z"/><polygon class="cls-6" points="399.53 0.73 399.53 52.74 374.27 0.73 357.91 0.73 357.91 71.72 370.71 71.72 370.71 20.51 395.87 71.72 412.34 71.72 412.34 0.73 399.53 0.73"/><rect class="cls-7" x="222.89" y="0.66" width="47.54" height="12.82"/><polygon class="cls-8" points="253.01 30.24 222.89 30.24 222.89 43.06 253.01 43.06 253.01 38.78 270.43 38.78 270.43 34.69 253.01 34.69 253.01 30.24"/><rect class="cls-9" x="222.89" y="58.95" width="47.54" height="12.82"/><path class="cls-1" d="M7.93,174.79l0,.17,2.66,1.11A20.8,20.8,0,0,1,7.93,174.79Z"/><path class="cls-10" d="M44.25,85.36v62.36q0,8.81-.61,14.95a33.51,33.51,0,0,1-2.27,9.93,11.29,11.29,0,0,1-5,5.61A18.21,18.21,0,0,1,27.67,180a34.67,34.67,0,0,1-13.1-2.26l-1.33-.55-1.18-.49-1.52-.65L7.88,175l-3.36-1.41a19.92,19.92,0,0,1-3.18-.93L.77,202.56A41.86,41.86,0,0,0,13,208.32a52.62,52.62,0,0,0,14.67,1.93q16.94,0,27.07-4.43T69.93,193.1a51.78,51.78,0,0,0,6.72-19.75,177.74,177.74,0,0,0,1.66-25.46V85.36Z"/><polygon class="cls-11" points="302.93 110.68 302.93 85.36 208.26 85.36 208.26 115.05 261.89 115.05 205.64 184.04 205.64 209.37 303.98 209.37 303.98 179.68 250.18 179.68 302.93 110.68"/><path class="cls-12" d="M358.82,179.68l52.75-69V85.36H316.91v29.69h53.62l-56.25,69v25.32h98.34V179.68Zm15.13-86h2.66v5.52h6.2V93.69h2.63v13.67h-2.63v-5.83h-6.2v5.83H374Zm-24.32,13.67h-2.29l-2.4-5.74-2.39,5.74h-2.29L334.8,93.69h2.85l3.88,10.61,1.71-4.38-2.33-6.2h2.47l1.56,4.51,1.57-4.51H349l-2.33,6.2,1.72,4.38,3.87-10.61h2.89Zm9.54,0h-2.66V93.69h2.66ZM367.88,96v11.34h-2.64V96h-4.39V93.69h11.38V96Zm-19.63,106.5h-2.19l-7-8.79v8.79h-2.66V188.84h2.15l7.05,9v-9h2.63Zm14.88-4.21a7,7,0,0,1-1.39,2.22,6.55,6.55,0,0,1-2.11,1.52,6.42,6.42,0,0,1-2.67.56,6.23,6.23,0,0,1-2.72-.58,6.5,6.5,0,0,1-2.1-1.57,7.41,7.41,0,0,1-1.37-2.23,7.24,7.24,0,0,1-.47-2.55,6.6,6.6,0,0,1,.51-2.61,7.17,7.17,0,0,1,1.41-2.22,6.54,6.54,0,0,1,2.12-1.54,6.32,6.32,0,0,1,2.68-.57,6.09,6.09,0,0,1,2.71.6,6.7,6.7,0,0,1,2.09,1.59,7.72,7.72,0,0,1,1.33,2.24,7.15,7.15,0,0,1,.48,2.54A7,7,0,0,1,363.13,198.31Zm12.06,4.21h-9.51V188.84H375v2.33h-6.66v3.29h5.75v2.16h-5.75v3.56h6.85Zm11.7,0h-9.63V188.84h2.66v11.34h7Zm11-2.09a3.6,3.6,0,0,1-1.11,1.25,4.44,4.44,0,0,1-1.61.71,8.18,8.18,0,0,1-1.94.22,10.26,10.26,0,0,1-2.05-.21,11.6,11.6,0,0,1-1.95-.6,10.45,10.45,0,0,1-1.74-1l1.17-2.3a4.28,4.28,0,0,0,.62.46,8.71,8.71,0,0,0,1.07.56,10.79,10.79,0,0,0,1.39.47,6.11,6.11,0,0,0,1.53.19,3,3,0,0,0,1.64-.35,1.18,1.18,0,0,0,.54-1,1.21,1.21,0,0,0-.44-1,3.84,3.84,0,0,0-1.22-.62c-.53-.17-1.15-.35-1.88-.55a10.31,10.31,0,0,1-2.16-.82,3.39,3.39,0,0,1-1.29-1.15,3.1,3.1,0,0,1-.43-1.71,4,4,0,0,1,.68-2.35,4.13,4.13,0,0,1,1.81-1.44,6.35,6.35,0,0,1,2.51-.49,7.57,7.57,0,0,1,1.82.21,8.9,8.9,0,0,1,3,1.32l-1.17,2.15a5.8,5.8,0,0,0-.49-.36,6.94,6.94,0,0,0-.87-.45,8.35,8.35,0,0,0-1.1-.39,5.58,5.58,0,0,0-1.22-.15,2.82,2.82,0,0,0-1.63.39,1.35,1.35,0,0,0-.55,1.14,1.17,1.17,0,0,0,.35.89,3,3,0,0,0,1,.56c.47.15,1,.32,1.74.49a11.72,11.72,0,0,1,2.33.8,3.72,3.72,0,0,1,1.53,1.22,3.59,3.59,0,0,1,.53,2A3.93,3.93,0,0,1,397.91,200.43Z"/><path class="cls-13" d="M359.89,192.51a3.83,3.83,0,0,0-1.26-1,3.9,3.9,0,0,0-3.36,0,4.1,4.1,0,0,0-1.25,1.05,4.44,4.44,0,0,0-.77,1.46,5.6,5.6,0,0,0-.26,1.67,5.51,5.51,0,0,0,.27,1.71,4.58,4.58,0,0,0,.79,1.48,3.56,3.56,0,0,0,2.92,1.39,3.68,3.68,0,0,0,1.73-.39,3.8,3.8,0,0,0,1.23-1.06,4.26,4.26,0,0,0,.77-1.48,5.88,5.88,0,0,0,.24-1.65,5.46,5.46,0,0,0-.26-1.71A4.89,4.89,0,0,0,359.89,192.51Z"/><path class="cls-14" d="M163.4,90.35l-1.59-5H123.73l-39.65,124h35.47a19.92,19.92,0,0,1-.79-5.59V181.33c0-4.34-4.26-8-6.13-9.45l-4,4.91-2.69-2.21L131,144l2.69,2.21-4,4.93c2.58,2.33,9.3,9.19,9.3,16.84v32.52c0,7.82,7.83,6.18,7.83.41V109.11C146.75,99.76,150.57,89.57,163.4,90.35Zm-19.63,52.72H141.5v-6.69h2.27Zm0-10.61H141.5v-6.68h2.27Zm0-10.59H141.5v-6.69h2.27Z"/><path class="cls-15" d="M157.86,109.11v91.37a32.18,32.18,0,0,1-1.16,8.89h44.58L166,98.37C158.22,99.32,157.86,106.43,157.86,109.11Z"/><g class="cls-16"><path class="cls-17" d="M0,172.06v3.8c.87-.89,1.78-1.81,2.74-2.76A21.68,21.68,0,0,1,0,172.06Z"/></g></g></g></svg>