<svg xmlns="http://www.w3.org/2000/svg" xmlns:xlink="http://www.w3.org/1999/xlink" viewBox="0 0 824.57 88.63"><defs><style>.cls-1{fill:url(#linear-gradient);}.cls-2{fill:url(#linear-gradient-2);}.cls-3{fill:url(#linear-gradient-3);}.cls-4{fill:url(#linear-gradient-4);}.cls-5{fill:url(#linear-gradient-5);}.cls-6{fill:url(#linear-gradient-6);}.cls-7{fill:url(#linear-gradient-7);}.cls-8{fill:url(#linear-gradient-8);}.cls-9{fill:url(#radial-gradient);}.cls-10{fill:url(#radial-gradient-2);}.cls-11{fill:url(#radial-gradient-3);}.cls-12{fill:url(#radial-gradient-4);}.cls-13{fill:url(#radial-gradient-5);}.cls-14{fill:url(#radial-gradient-6);}</style><linearGradient id="linear-gradient" x1="36.42" y1="-67.93" x2="39.86" y2="161.53" gradientUnits="userSpaceOnUse"><stop offset="0" stop-color="#c9a437"/><stop offset="1" stop-color="#bb9330"/></linearGradient><linearGradient id="linear-gradient-2" x1="129.64" y1="-69.33" x2="133.09" y2="160.13" xlink:href="#linear-gradient"/><linearGradient id="linear-gradient-3" x1="214.82" y1="-70.61" x2="218.27" y2="158.85" xlink:href="#linear-gradient"/><linearGradient id="linear-gradient-4" x1="380.14" y1="-73.09" x2="383.59" y2="156.37" xlink:href="#linear-gradient"/><linearGradient id="linear-gradient-5" x1="467.04" y1="-74.4" x2="470.48" y2="155.07" xlink:href="#linear-gradient"/><linearGradient id="linear-gradient-6" x1="298.37" y1="-71.87" x2="301.81" y2="157.6" xlink:href="#linear-gradient"/><linearGradient id="linear-gradient-7" x1="297.79" y1="-71.86" x2="301.23" y2="157.61" xlink:href="#linear-gradient"/><linearGradient id="linear-gradient-8" x1="297.3" y1="-71.85" x2="300.74" y2="157.62" xlink:href="#linear-gradient"/><radialGradient id="radial-gradient" cx="576.56" cy="42.27" r="34.55" gradientUnits="userSpaceOnUse"><stop offset="0" stop-color="#ff4f00"/><stop offset="1" stop-color="#e73f00"/></radialGradient><radialGradient id="radial-gradient-2" cx="719.66" cy="41.98" r="37.2" xlink:href="#radial-gradient"/><radialGradient id="radial-gradient-3" cx="791.88" cy="41.98" r="37.2" xlink:href="#radial-gradient"/><radialGradient id="radial-gradient-4" cx="787.57" cy="74.1" r="2.85" xlink:href="#radial-gradient"/><radialGradient id="radial-gradient-5" cx="632.53" cy="41.98" r="34.6" xlink:href="#radial-gradient"/><radialGradient id="radial-gradient-6" cx="669.26" cy="46.31" r="28.11" xlink:href="#radial-gradient"/></defs><title>Modern Jazz Logo 2</title><g id="Layer_2" data-name="Layer 2"><g id="Layer_1-2" data-name="Layer 1"><polygon class="cls-1" points="38.1 59.42 21.56 0.89 0 0.89 0 87.73 14.87 87.73 14.87 27.21 30.88 78.05 45.33 78.05 61.33 26.06 61.33 87.73 76.2 87.73 76.2 0.89 54.65 0.89 38.1 59.42"/><path class="cls-2" d="M159.13,15.19A27.85,27.85,0,0,0,148,4a33.86,33.86,0,0,0-16.63-4,33.78,33.78,0,0,0-16.63,4,27.55,27.55,0,0,0-11.14,11.22,34.6,34.6,0,0,0-4,16.82V56.6a34.5,34.5,0,0,0,4,16.82,27.39,27.39,0,0,0,11.14,11.23,33.78,33.78,0,0,0,16.63,4,33.87,33.87,0,0,0,16.63-4,27.69,27.69,0,0,0,11.14-11.23,34.82,34.82,0,0,0,3.93-16.82V32A34.94,34.94,0,0,0,159.13,15.19ZM146.11,57a17,17,0,0,1-1.82,8,12.89,12.89,0,0,1-5.17,5.35,17.06,17.06,0,0,1-15.53,0A12.8,12.8,0,0,1,118.43,65a16.86,16.86,0,0,1-1.83-8V31.59a16.93,16.93,0,0,1,1.83-8,12.75,12.75,0,0,1,5.16-5.33,16.9,16.9,0,0,1,15.53,0,12.84,12.84,0,0,1,5.17,5.33,17,17,0,0,1,1.82,8Z"/><path class="cls-3" d="M244.25,15.16A25.78,25.78,0,0,0,232.58,4.54Q224.9.89,214,.89H185.31V87.73h29c.9,0,1.77,0,2.62-.07s1.62-.08,2.39-.15a37.79,37.79,0,0,0,13.51-3.65,26.65,26.65,0,0,0,10.52-9.17c.3-.45.57-.92.84-1.4a2.49,2.49,0,0,0,.19-.3,33.47,33.47,0,0,0,3.85-16.38V32Q248.25,22.16,244.25,15.16ZM231.33,57.75c0,4.63-1.43,8.21-4.34,10.74s-7,3.8-12.25,3.8h-12.5V72h-.57V16.66H214.4q8.06,0,12.47,3.89c2.94,2.58,4.43,6.24,4.43,11v.06c0,.37,0,.75,0,1.13Z"/><path class="cls-4" d="M394.64,51.93a22.08,22.08,0,0,0,5.68-2.37,21.72,21.72,0,0,0,8.45-9.09,29.74,29.74,0,0,0,3-13.66,29.6,29.6,0,0,0-3-13.64,21.86,21.86,0,0,0-8.42-9.12A24.31,24.31,0,0,0,387.76.83H349.71v86.9h16.35V52.79H376l19.56,34.94h19.84Zm-3.78-16.16A7.94,7.94,0,0,1,386.44,37H366.06V16.59h20.38a7.82,7.82,0,0,1,7.43,4.85,12.77,12.77,0,0,1,1,5.37,13.68,13.68,0,0,1-1.09,5.38A8.24,8.24,0,0,1,390.86,35.77Z"/><polygon class="cls-5" points="486.44 0.89 486.44 64.47 455.56 0.89 435.56 0.89 435.56 87.67 451.2 87.67 451.2 25.07 481.96 87.67 502.08 87.67 502.08 0.89 486.44 0.89"/><rect class="cls-6" x="270.52" y="0.81" width="58.11" height="15.68"/><polygon class="cls-7" points="307.34 36.96 270.52 36.96 270.52 52.63 307.34 52.63 307.34 47.4 328.63 47.4 328.63 42.4 307.34 42.4 307.34 36.96"/><rect class="cls-8" x="270.52" y="72.05" width="58.11" height="15.68"/><path class="cls-9" d="M579.69,42.21q0,5.86-.4,9.94a22.84,22.84,0,0,1-1.51,6.61,7.54,7.54,0,0,1-3.31,3.73,12.14,12.14,0,0,1-5.8,1.2A22.91,22.91,0,0,1,560,62.18l-.88-.36-.79-.33-1-.43-1.77-.74-4.34-1.81-.39,20.16a28.08,28.08,0,0,0,8.13,3.83,35,35,0,0,0,9.76,1.28q11.25,0,18-2.94a21.32,21.32,0,0,0,10.1-8.46,34.44,34.44,0,0,0,4.47-13.13,117.64,117.64,0,0,0,1.1-16.92V.76H579.69Z"/><polygon class="cls-10" points="751.65 17.6 751.65 0.76 688.72 0.76 688.72 20.5 724.37 20.5 686.98 66.36 686.98 83.2 752.35 83.2 752.35 63.46 716.59 63.46 751.65 17.6"/><path class="cls-11" d="M788.81,63.46,823.87,17.6V.76H760.94V20.5h35.65L759.2,66.36V83.2h65.37V63.46ZM798.86,6.3h1.77V10h4.12V6.3h1.75v9.09h-1.75V11.51h-4.12v3.88h-1.77ZM782.7,15.39h-1.53l-1.59-3.82L778,15.39h-1.53L772.84,6.3h1.89l2.58,7.06,1.14-2.92L776.9,6.32h1.64l1,3,1-3h1.63l-1.55,4.12,1.15,2.92,2.56-7.06h1.93Zm6.34,0h-1.77V6.3H789Zm5.79-7.54v7.54h-1.76V7.85h-2.92V6.3h7.57V7.85ZM781.78,78.64h-1.46l-4.64-5.84v5.84h-1.76V69.55h1.42l4.69,6v-6h1.75Zm9.89-2.8a4.72,4.72,0,0,1-.92,1.48,4.63,4.63,0,0,1-1.41,1,4.31,4.31,0,0,1-1.77.37,4.11,4.11,0,0,1-1.81-.39,4.49,4.49,0,0,1-1.4-1,4.88,4.88,0,0,1-1.22-3.18,4.46,4.46,0,0,1,.34-1.74,4.89,4.89,0,0,1,.93-1.47,4.5,4.5,0,0,1,1.41-1,4.29,4.29,0,0,1,1.79-.38,4.16,4.16,0,0,1,1.8.4,4.55,4.55,0,0,1,1.39,1.06,5,5,0,0,1,.88,1.49,4.69,4.69,0,0,1,.32,1.69A4.58,4.58,0,0,1,791.67,75.84Zm8,2.8h-6.31V69.55h6.19V71.1h-4.43v2.19H799v1.43h-3.82v2.37h4.55Zm7.78,0h-6.4V69.55h1.77v7.54h4.63Zm7.33-1.39a2.19,2.19,0,0,1-.74.83,2.9,2.9,0,0,1-1.07.48,5.43,5.43,0,0,1-1.29.15,6.37,6.37,0,0,1-1.36-.15,6.23,6.23,0,0,1-1.29-.4,6.14,6.14,0,0,1-1.16-.63l.78-1.53a2.39,2.39,0,0,0,.4.3,5.33,5.33,0,0,0,.72.37,6.22,6.22,0,0,0,.92.32,4,4,0,0,0,1,.13,2,2,0,0,0,1.09-.24.76.76,0,0,0,.35-.68.82.82,0,0,0-.28-.65,2.6,2.6,0,0,0-.82-.41l-1.24-.36a7.25,7.25,0,0,1-1.44-.55,2.22,2.22,0,0,1-.86-.76,2.1,2.1,0,0,1-.29-1.14,2.67,2.67,0,0,1,.46-1.57,2.79,2.79,0,0,1,1.2-1,4.29,4.29,0,0,1,1.67-.33,4.72,4.72,0,0,1,1.21.15,5.19,5.19,0,0,1,1.07.37,6.39,6.39,0,0,1,.9.5L814,71.93a2.62,2.62,0,0,0-.33-.24,4.5,4.5,0,0,0-1.31-.55,3.15,3.15,0,0,0-.81-.1,1.87,1.87,0,0,0-1.08.25.89.89,0,0,0-.36.76.78.78,0,0,0,.23.59A1.84,1.84,0,0,0,811,73c.31.1.69.22,1.15.33a7.37,7.37,0,0,1,1.55.53,2.49,2.49,0,0,1,1,.82,2.31,2.31,0,0,1,.35,1.34A2.58,2.58,0,0,1,814.79,77.25Z"/><path class="cls-12" d="M789.52,72a2.52,2.52,0,0,0-.84-.68,2.36,2.36,0,0,0-1.11-.25,2.4,2.4,0,0,0-1.12.26,2.56,2.56,0,0,0-.83.7,2.92,2.92,0,0,0-.52,1,3.78,3.78,0,0,0-.17,1.11,3.67,3.67,0,0,0,.18,1.14,3.18,3.18,0,0,0,.52,1,2.36,2.36,0,0,0,2,.92,2.46,2.46,0,0,0,1.14-.26,2.64,2.64,0,0,0,.82-.7,2.82,2.82,0,0,0,.51-1,3.75,3.75,0,0,0,.17-1.09A3.67,3.67,0,0,0,790,73,3.23,3.23,0,0,0,789.52,72Z"/><path class="cls-13" d="M658.9,4.08,657.84.76H632.52L606.17,83.2h23.58a13.12,13.12,0,0,1-.53-3.72V64.56c0-2.88-2.83-5.34-4.07-6.28l-2.67,3.26-1.79-1.47,16.65-20.34,1.79,1.47-2.69,3.27c1.71,1.56,6.19,6.12,6.19,11.2V77.29c0,5.2,5.2,4.11,5.2.27v-61C647.83,10.34,650.37,3.56,658.9,4.08Zm-13,35h-1.51V34.68h1.51Zm0-7h-1.51V27.63h1.51Zm0-7h-1.51V20.58h1.51Z"/><path class="cls-14" d="M655.21,16.55V77.29a21.21,21.21,0,0,1-.77,5.91h29.64L660.59,9.41C655.46,10,655.21,14.76,655.21,16.55Z"/></g></g></svg>